<mxfile host="app.diagrams.net" modified="2021-06-25T20:01:58.844Z" agent="5.0 (Windows)" etag="ZgOvczO48to58TeR5BeA" version="13.6.6" type="github">
  <diagram id="TLkPJLO_rXAb08wiplHC" name="Page-1">
    <mxGraphModel dx="599" dy="330" grid="1" gridSize="10" guides="1" tooltips="1" connect="1" arrows="1" fold="1" page="1" pageScale="1" pageWidth="850" pageHeight="1100" math="0" shadow="0">
      <root>
        <mxCell id="0" />
        <mxCell id="1" parent="0" />
        <mxCell id="Kuj8ouRovAtnDa-c6B08-2" value="" style="rounded=1;whiteSpace=wrap;html=1;fontFamily=Verdana;" vertex="1" parent="1">
          <mxGeometry x="140" y="60" width="450" height="180" as="geometry" />
        </mxCell>
        <mxCell id="1dGk-xLJa61S_E6pHA25-1" value="Sensors" style="rounded=1;whiteSpace=wrap;html=1;fillColor=#fff2cc;strokeColor=#d6b656;fontFamily=Verdana;" parent="1" vertex="1">
          <mxGeometry x="150" y="90" width="110" height="40" as="geometry" />
        </mxCell>
        <mxCell id="Kuj8ouRovAtnDa-c6B08-3" style="edgeStyle=orthogonalEdgeStyle;rounded=0;orthogonalLoop=1;jettySize=auto;html=1;exitX=0.5;exitY=0;exitDx=0;exitDy=0;entryX=0.5;entryY=1;entryDx=0;entryDy=0;fontFamily=Verdana;startArrow=classic;startFill=1;" edge="1" parent="1" source="1dGk-xLJa61S_E6pHA25-2" target="Kuj8ouRovAtnDa-c6B08-1">
          <mxGeometry relative="1" as="geometry" />
        </mxCell>
        <mxCell id="1dGk-xLJa61S_E6pHA25-2" value="Processor" style="rounded=1;whiteSpace=wrap;html=1;fillColor=#e1d5e7;strokeColor=#9673a6;fontFamily=Verdana;" parent="1" vertex="1">
          <mxGeometry x="295" y="140" width="130" height="40" as="geometry" />
        </mxCell>
        <mxCell id="1dGk-xLJa61S_E6pHA25-3" value="Radio Transciever" style="rounded=1;whiteSpace=wrap;html=1;fillColor=#f8cecc;strokeColor=#b85450;fontFamily=Verdana;" parent="1" vertex="1">
          <mxGeometry x="450" y="140" width="130" height="40" as="geometry" />
        </mxCell>
        <mxCell id="1dGk-xLJa61S_E6pHA25-4" value="Power Source" style="rounded=1;whiteSpace=wrap;html=1;fillColor=#d5e8d4;strokeColor=#82b366;fontFamily=Verdana;" parent="1" vertex="1">
          <mxGeometry x="297" y="190" width="130" height="40" as="geometry" />
        </mxCell>
        <mxCell id="1dGk-xLJa61S_E6pHA25-5" value="GPS" style="rounded=1;whiteSpace=wrap;html=1;fillColor=#fff2cc;strokeColor=#d6b656;fontFamily=Verdana;" parent="1" vertex="1">
          <mxGeometry x="150" y="140" width="110" height="40" as="geometry" />
        </mxCell>
        <mxCell id="Kuj8ouRovAtnDa-c6B08-1" value="&lt;div&gt;Memory&lt;/div&gt;" style="rounded=1;whiteSpace=wrap;html=1;fillColor=#e1d5e7;strokeColor=#9673a6;fontFamily=Verdana;" vertex="1" parent="1">
          <mxGeometry x="295" y="80" width="130" height="40" as="geometry" />
        </mxCell>
        <mxCell id="Kuj8ouRovAtnDa-c6B08-4" value="" style="endArrow=classic;startArrow=classic;html=1;fontFamily=Verdana;entryX=1;entryY=0.5;entryDx=0;entryDy=0;exitX=0;exitY=0.5;exitDx=0;exitDy=0;" edge="1" parent="1" source="1dGk-xLJa61S_E6pHA25-3" target="1dGk-xLJa61S_E6pHA25-2">
          <mxGeometry width="50" height="50" relative="1" as="geometry">
            <mxPoint x="400" y="270" as="sourcePoint" />
            <mxPoint x="450" y="220" as="targetPoint" />
          </mxGeometry>
        </mxCell>
        <mxCell id="Kuj8ouRovAtnDa-c6B08-6" value="" style="endArrow=classic;html=1;fontFamily=Verdana;exitX=1;exitY=0.5;exitDx=0;exitDy=0;entryX=0;entryY=0.5;entryDx=0;entryDy=0;" edge="1" parent="1" source="1dGk-xLJa61S_E6pHA25-5" target="1dGk-xLJa61S_E6pHA25-2">
          <mxGeometry width="50" height="50" relative="1" as="geometry">
            <mxPoint x="260" y="200" as="sourcePoint" />
            <mxPoint x="310" y="150" as="targetPoint" />
          </mxGeometry>
        </mxCell>
        <mxCell id="Kuj8ouRovAtnDa-c6B08-7" value="" style="endArrow=none;html=1;fontFamily=Verdana;entryX=1;entryY=0.5;entryDx=0;entryDy=0;" edge="1" parent="1" target="1dGk-xLJa61S_E6pHA25-1">
          <mxGeometry width="50" height="50" relative="1" as="geometry">
            <mxPoint x="270" y="160" as="sourcePoint" />
            <mxPoint x="310" y="90" as="targetPoint" />
            <Array as="points">
              <mxPoint x="270" y="110" />
            </Array>
          </mxGeometry>
        </mxCell>
        <mxCell id="Kuj8ouRovAtnDa-c6B08-8" value="" style="endArrow=none;html=1;fontFamily=Verdana;exitX=0.42;exitY=1.026;exitDx=0;exitDy=0;exitPerimeter=0;entryX=0;entryY=0.5;entryDx=0;entryDy=0;" edge="1" parent="1" source="1dGk-xLJa61S_E6pHA25-5" target="1dGk-xLJa61S_E6pHA25-4">
          <mxGeometry width="50" height="50" relative="1" as="geometry">
            <mxPoint x="400" y="270" as="sourcePoint" />
            <mxPoint x="450" y="220" as="targetPoint" />
            <Array as="points">
              <mxPoint x="196" y="210" />
            </Array>
          </mxGeometry>
        </mxCell>
        <mxCell id="Kuj8ouRovAtnDa-c6B08-9" value="" style="endArrow=none;html=1;fontFamily=Verdana;exitX=0.149;exitY=0.833;exitDx=0;exitDy=0;exitPerimeter=0;entryX=0.546;entryY=0.991;entryDx=0;entryDy=0;entryPerimeter=0;" edge="1" parent="1" target="1dGk-xLJa61S_E6pHA25-3">
          <mxGeometry width="50" height="50" relative="1" as="geometry">
            <mxPoint x="427" y="209.66000000000005" as="sourcePoint" />
            <mxPoint x="513.9700000000001" y="209.72" as="targetPoint" />
            <Array as="points">
              <mxPoint x="521" y="210" />
            </Array>
          </mxGeometry>
        </mxCell>
        <mxCell id="Kuj8ouRovAtnDa-c6B08-10" value="" style="endArrow=classic;html=1;fontFamily=Verdana;entryX=0.5;entryY=1;entryDx=0;entryDy=0;" edge="1" parent="1" target="1dGk-xLJa61S_E6pHA25-2">
          <mxGeometry width="50" height="50" relative="1" as="geometry">
            <mxPoint x="360" y="190" as="sourcePoint" />
            <mxPoint x="305" y="170" as="targetPoint" />
          </mxGeometry>
        </mxCell>
      </root>
    </mxGraphModel>
  </diagram>
</mxfile>
